<svg width="551" height="109" viewBox="0 0 551 109" fill="none" xmlns="http://www.w3.org/2000/svg">
<g filter="url(#filter0_i_99_204)">
<path d="M0 0H551V109H118.743L0 56V0Z" fill="url(#paint0_linear_99_204)"/>
</g>
<path d="M161 65.6C158.867 67.1333 155.5 67.9 150.9 67.9L144.45 67.75C144.05 66.2167 143.833 59.9167 143.8 48.85V45.3C143.8 42.4 144.067 40.25 144.6 38.85C145.167 37.35 146.283 36.15 147.95 35.25C148.783 34.8167 149.983 34.6 151.55 34.6C153.117 34.6 154.317 34.7 155.15 34.9C157.283 35.3667 158.783 36.2167 159.65 37.45C160.517 38.65 160.95 40.3667 160.95 42.6C160.95 45.5667 160.167 47.75 158.6 49.15C159.333 49.25 160.1 49.6333 160.9 50.3C161.7 50.9333 162.383 51.6667 162.95 52.5C163.817 53.8667 164.25 55.6833 164.25 57.95C164.25 61.4833 163.167 64.0333 161 65.6ZM147.75 41.8L147.8 43.55L147.9 49.25C148.1 49.25 148.667 49.1833 149.6 49.05C150.067 48.9833 150.967 48.8167 152.3 48.55C155.667 47.75 157.35 45.8333 157.35 42.8C157.35 41.3333 156.917 40.25 156.05 39.55C155.217 38.8167 154.05 38.45 152.55 38.45C150.75 38.45 149.533 38.7667 148.9 39.4C148.833 39.4667 148.717 39.5833 148.55 39.75C148.383 39.8833 148.25 40.0333 148.15 40.2C148.05 40.3667 147.967 40.6167 147.9 40.95L147.75 41.8ZM154.45 52.75C153.017 52.75 150.783 52.9667 147.75 53.4C147.75 58.3667 147.833 61.8833 148 63.95C151.933 63.95 154.667 63.7 156.2 63.2C157.767 62.6333 158.817 62 159.35 61.3C159.917 60.5333 160.2 59.5333 160.2 58.3L160.15 57.1C160.15 56.6667 160.05 56.15 159.85 55.55C159.65 54.95 159.383 54.5 159.05 54.2C158.65 53.8 158.133 53.4667 157.5 53.2C156.8 52.9 155.783 52.75 154.45 52.75ZM177.392 56.8L172.392 56.75L172.492 63.3C172.492 64.2 172.475 64.6667 172.442 64.7L181.092 64.55C182.058 64.65 182.542 65.0667 182.542 65.8C182.542 67.2 181.892 67.9 180.592 67.9L170.792 68C169.958 68 169.442 67.6833 169.242 67.05C169.042 66.4167 168.942 65.5667 168.942 64.5V56.2C168.508 55.9667 168.292 55.6 168.292 55.1C168.292 54.6667 168.475 54.2667 168.842 53.9C168.742 51.3 168.692 48.9333 168.692 46.8C168.692 45.5667 169.442 44.9333 170.942 44.9H172.342L181.092 45.05H181.142C182.208 45.2167 182.742 45.7167 182.742 46.55C182.742 47.1833 182.542 47.6333 182.142 47.9C181.275 48.3667 179.192 48.6 175.892 48.6C174.692 48.6 173.458 48.55 172.192 48.45C172.192 51.5833 172.208 53.2667 172.242 53.5C173.108 53.5333 175.658 53.55 179.892 53.55C180.925 53.6833 181.442 54.15 181.442 54.95C181.442 55.35 181.275 55.7333 180.942 56.1C180.608 56.4667 180.242 56.6833 179.842 56.75C179.675 56.75 179.408 56.7667 179.042 56.8C178.675 56.8 178.125 56.8 177.392 56.8ZM189.986 68C188.986 68 188.503 67.4833 188.536 66.45V63.8C188.536 61.9667 188.436 59.1833 188.236 55.45C188.036 51.5167 187.869 49.15 187.736 48.35C187.603 47.5167 187.536 46.8667 187.536 46.4C187.536 46.1 187.753 45.7833 188.186 45.45C188.619 45.0833 189.069 44.9 189.536 44.9C190.103 44.9 190.553 45.2 190.886 45.8C191.586 47.3333 191.936 50.5333 191.936 55.4C194.203 53.5333 195.869 52.0167 196.936 50.85C198.236 49.45 199.519 47.8 200.786 45.9C201.253 45.2 201.803 44.85 202.436 44.85C203.703 44.85 204.336 45.2667 204.336 46.1C204.336 47.7 202.186 50.7 197.886 55.1C199.686 56.7 201.403 58.8 203.036 61.4C204.669 63.8667 205.486 65.4333 205.486 66.1C205.486 66.6667 205.319 67.1167 204.986 67.45C204.653 67.7833 204.236 67.95 203.736 67.95C203.303 67.95 202.803 67.6167 202.236 66.95C201.703 66.25 200.919 65.0833 199.886 63.45C199.053 62.05 198.303 60.95 197.636 60.15C196.936 59.2167 196.053 58.3167 194.986 57.45C194.019 58.3167 193.036 59.1 192.036 59.8L192.186 66.35C192.186 67.45 191.453 68 189.986 68ZM212.346 67.5C211.879 67.8333 211.396 68 210.896 68C209.962 68 209.496 67.6 209.496 66.8L209.696 46.45C209.696 45.9833 209.846 45.6167 210.146 45.35C210.479 45.05 210.896 44.9 211.396 44.9C211.896 44.9 212.312 45.0167 212.646 45.25C213.012 45.5167 213.212 45.9167 213.246 46.45C213.279 46.8167 213.296 48.0333 213.296 50.1C213.296 59.2 213.229 64.6167 213.096 66.35C213.062 66.75 212.812 67.1333 212.346 67.5ZM226.765 44.65C227.399 44.65 227.765 44.8833 227.865 45.35C228.432 51.0833 228.715 54.9333 228.715 56.9C228.715 58.7 228.682 60.2333 228.615 61.5C228.415 63.6333 227.849 65.25 226.915 66.35C226.015 67.45 224.615 68 222.715 68C220.815 68 219.399 67.4333 218.465 66.3C217.532 65.1667 216.899 63.4833 216.565 61.25C216.565 60.7833 216.782 60.4167 217.215 60.15C217.682 59.8833 218.165 59.75 218.665 59.75C219.099 59.75 219.365 59.8333 219.465 60C219.632 60.2 219.782 60.7667 219.915 61.7C220.115 62.5667 220.499 63.3167 221.065 63.95C221.665 64.5833 222.265 64.9 222.865 64.9C223.799 64.9 224.432 64.4833 224.765 63.65C225.265 62.0833 225.515 60.2167 225.515 58.05C225.515 55.8167 225.315 53.4333 224.915 50.9C224.549 48.6 224.332 47.0167 224.265 46.15C224.199 45.7833 224.449 45.45 225.015 45.15C225.615 44.8167 226.199 44.65 226.765 44.65ZM235.005 68C234.005 68 233.522 67.4833 233.555 66.45V63.8C233.555 61.9667 233.455 59.1833 233.255 55.45C233.055 51.5167 232.889 49.15 232.755 48.35C232.622 47.5167 232.555 46.8667 232.555 46.4C232.555 46.1 232.772 45.7833 233.205 45.45C233.639 45.0833 234.089 44.9 234.555 44.9C235.122 44.9 235.572 45.2 235.905 45.8C236.605 47.3333 236.955 50.5333 236.955 55.4C239.222 53.5333 240.889 52.0167 241.955 50.85C243.255 49.45 244.539 47.8 245.805 45.9C246.272 45.2 246.822 44.85 247.455 44.85C248.722 44.85 249.355 45.2667 249.355 46.1C249.355 47.7 247.205 50.7 242.905 55.1C244.705 56.7 246.422 58.8 248.055 61.4C249.689 63.8667 250.505 65.4333 250.505 66.1C250.505 66.6667 250.339 67.1167 250.005 67.45C249.672 67.7833 249.255 67.95 248.755 67.95C248.322 67.95 247.822 67.6167 247.255 66.95C246.722 66.25 245.939 65.0833 244.905 63.45C244.072 62.05 243.322 60.95 242.655 60.15C241.955 59.2167 241.072 58.3167 240.005 57.45C239.039 58.3167 238.055 59.1 237.055 59.8L237.205 66.35C237.205 67.45 236.472 68 235.005 68ZM268.789 47.8C270.589 46.0333 273.072 45.15 276.239 45.15C278.739 45.15 280.739 46.1167 282.239 48.05C283.739 49.95 284.489 52.5333 284.489 55.8C284.489 59.0667 283.655 61.9167 281.989 64.35C280.355 66.75 278.239 67.95 275.639 67.95C272.839 67.95 270.555 66.75 268.789 64.35C267.022 61.9167 266.139 58.9833 266.139 55.55C266.139 52.15 267.022 49.5667 268.789 47.8ZM271.289 61.5C272.455 63.3667 274.022 64.3 275.989 64.3C277.122 64.3 278.089 63.8167 278.889 62.85C280.222 61.2167 280.889 59.05 280.889 56.35C280.889 53.6167 280.489 51.65 279.689 50.45C278.922 49.2167 277.589 48.6 275.689 48.6C273.755 48.6 272.255 49.2 271.189 50.4C270.122 51.5667 269.589 53.25 269.589 55.45C269.589 57.65 270.155 59.6667 271.289 61.5ZM300.598 64.3C298.065 59.5 295.415 55.5333 292.648 52.4L292.098 64.55L292.048 65.65C292.048 66.2167 292.032 66.5667 291.998 66.7C291.865 67.6 291.282 68.05 290.248 68.05C289.848 68.05 289.482 67.9167 289.148 67.65C288.848 67.35 288.682 66.9833 288.648 66.55L289.048 52.55V50.9C289.048 49.6667 289.132 48.7 289.298 48C289.565 47.1 290.165 46.65 291.098 46.65C291.598 46.65 292.198 46.9833 292.898 47.65C293.598 48.2833 294.598 49.4333 295.898 51.1C299.032 54.9667 301.432 58.65 303.098 62.15C303.065 58.05 302.948 54.45 302.748 51.35L302.498 47.25V46.85C302.765 45.5833 303.448 44.95 304.548 44.95C304.982 44.95 305.382 45.15 305.748 45.55C306.115 45.9167 306.298 46.3833 306.298 46.95L306.548 65.55C306.548 67.2833 305.848 68.15 304.448 68.15C303.615 68.15 302.965 67.8667 302.498 67.3C301.932 66.6 301.498 65.9667 301.198 65.4C300.898 64.8333 300.698 64.4667 300.598 64.3ZM316.47 62.25C315.703 63.2167 315.153 64.0333 314.82 64.7H320.87L324.82 64.55C326.287 64.55 327.153 64.6667 327.42 64.9C327.72 65.1333 327.87 65.4167 327.87 65.75C327.87 66.65 327.537 67.2333 326.87 67.5C326.17 67.7333 324.803 67.85 322.77 67.85L312.47 68C311.903 68 311.503 67.9 311.27 67.7C311.07 67.4667 310.97 67.0833 310.97 66.55C311.17 65.35 311.52 64.25 312.02 63.25C312.553 62.2167 313.103 61.4 313.67 60.8C313.87 60.6 314.387 60.0667 315.22 59.2C316.053 58.3333 316.67 57.6167 317.07 57.05C314.17 56.6833 312.72 55.8667 312.72 54.6C312.72 54.1333 312.903 53.7167 313.27 53.35C313.67 52.95 314.037 52.75 314.37 52.75C314.47 52.75 314.62 52.7833 314.82 52.85C316.387 53.4167 318.137 53.7667 320.07 53.9L320.72 53.1C322.12 51.4667 323.237 50.0667 324.07 48.9C321.703 48.3667 317.77 48.1 312.27 48.1C311.27 48.1 310.77 47.6833 310.77 46.85C310.77 46.25 311.07 45.7 311.67 45.2C312.07 45 312.903 44.9 314.17 44.9C315.67 44.9 317.77 45.0167 320.47 45.25C323.37 45.45 325.603 45.75 327.17 46.15C328.103 46.3833 328.57 47 328.57 48C328.57 48.3333 328.47 48.6 328.27 48.8C327.47 49.7667 326.053 51.55 324.02 54.15C325.62 54.1833 326.42 54.6667 326.42 55.6C326.42 56.1333 326.303 56.5333 326.07 56.8C325.837 57.0667 325.503 57.25 325.07 57.35C324.737 57.45 324.103 57.5 323.17 57.5L321.17 57.45L319.87 58.75L318.57 60C317.47 61.1 316.77 61.85 316.47 62.25ZM342.48 56.8L337.48 56.75L337.58 63.3C337.58 64.2 337.563 64.6667 337.53 64.7L346.18 64.55C347.146 64.65 347.63 65.0667 347.63 65.8C347.63 67.2 346.98 67.9 345.68 67.9L335.88 68C335.046 68 334.53 67.6833 334.33 67.05C334.13 66.4167 334.03 65.5667 334.03 64.5V56.2C333.596 55.9667 333.38 55.6 333.38 55.1C333.38 54.6667 333.563 54.2667 333.93 53.9C333.83 51.3 333.78 48.9333 333.78 46.8C333.78 45.5667 334.53 44.9333 336.03 44.9H337.43L346.18 45.05H346.23C347.296 45.2167 347.83 45.7167 347.83 46.55C347.83 47.1833 347.63 47.6333 347.23 47.9C346.363 48.3667 344.28 48.6 340.98 48.6C339.78 48.6 338.546 48.55 337.28 48.45C337.28 51.5833 337.296 53.2667 337.33 53.5C338.196 53.5333 340.746 53.55 344.98 53.55C346.013 53.6833 346.53 54.15 346.53 54.95C346.53 55.35 346.363 55.7333 346.03 56.1C345.696 56.4667 345.33 56.6833 344.93 56.75C344.763 56.75 344.496 56.7667 344.13 56.8C343.763 56.8 343.213 56.8 342.48 56.8ZM366.947 70.75C366.214 70.75 365.747 70.3 365.547 69.4L364.897 66.4C364.397 66 364.147 65.5667 364.147 65.1C364.147 64.7 364.331 64.35 364.697 64.05C364.064 59.4167 363.747 53.95 363.747 47.65C363.747 46.3833 363.831 42.75 363.997 36.75C364.131 36.25 364.447 35.85 364.947 35.55C365.447 35.2167 365.947 35.0167 366.447 34.95C366.981 34.85 367.281 34.85 367.347 34.95C372.147 36.3167 376.297 38.9 379.797 42.7C383.364 46.5 385.214 51.0667 385.347 56.4C385.347 62.2667 382.914 65.95 378.047 67.45C376.614 67.8833 375.031 68.1 373.297 68.1C372.097 68.1 370.847 67.9833 369.547 67.75C369.681 68.0833 369.747 68.3833 369.747 68.65C369.747 69.2167 369.464 69.7 368.897 70.1C368.364 70.5333 367.714 70.75 366.947 70.75ZM368.147 39.2C367.981 43.6 367.897 46.2833 367.897 47.25C367.897 52.9167 368.231 58.45 368.897 63.85C369.631 64.0833 370.981 64.2 372.947 64.2C374.881 64.2 376.697 63.8833 378.397 63.25C380.164 62.5833 381.097 61.65 381.197 60.45C381.297 59.4833 381.347 58.7667 381.347 58.3C381.347 53.9667 380.181 50.1333 377.847 46.8C375.547 43.4667 372.314 40.9333 368.147 39.2ZM401.178 34.95C401.478 35.1833 401.644 35.4667 401.678 35.8C402.378 44.8 402.728 50.5 402.728 52.9C402.728 54.8667 402.694 56.65 402.628 58.25C402.528 59.6167 402.344 60.9667 402.078 62.3C401.811 63.6333 401.444 64.6667 400.978 65.4C399.878 67.2667 398.111 68.2 395.678 68.2C393.211 68.2 391.211 67.3833 389.678 65.75C388.178 64.0833 387.428 61.7667 387.428 58.8C387.428 58.3 387.678 57.85 388.178 57.45C388.711 57.0167 389.278 56.8 389.878 56.8C390.611 56.8 391.061 57.4833 391.228 58.85C391.694 62.7167 393.144 64.65 395.578 64.65C397.311 64.65 398.378 63.1667 398.778 60.2C398.978 58.8 399.078 57.1333 399.078 55.2C399.078 53.2 398.828 49.6333 398.328 44.5L398.078 41.5L397.628 36.25C397.628 35.8833 397.894 35.5167 398.428 35.15C398.961 34.7833 399.478 34.6 399.978 34.6C400.478 34.6 400.878 34.7167 401.178 34.95ZM411.134 30.45C411.5 30.75 411.684 31.1833 411.684 31.75C411.684 33.55 411.35 35.3167 410.684 37.05C410.05 38.75 409.167 39.6 408.034 39.6C406.934 39.6 406.384 39.0333 406.384 37.9C406.384 37.4667 406.667 36.6333 407.234 35.4C407.834 34.2 408.134 32.9333 408.134 31.6C408.134 31.1 408.3 30.7167 408.634 30.45C409 30.15 409.434 30 409.934 30C410.4 30 410.8 30.15 411.134 30.45ZM430.67 45.75C431.903 46.3167 432.52 47.0833 432.52 48.05C432.52 48.4833 432.37 48.85 432.07 49.15C431.803 49.4167 431.52 49.55 431.22 49.55C430.687 49.55 429.837 49.2833 428.67 48.75C427.57 48.2167 426.503 47.95 425.47 47.95C424.503 47.95 423.503 48.2167 422.47 48.75C421.437 49.25 420.92 49.8833 420.92 50.65C420.92 51.4167 421.553 52.1 422.82 52.7C423.987 53.2667 425.487 53.7833 427.32 54.25C429.12 54.7167 430.27 55.15 430.77 55.55C431.27 55.8833 431.687 56.2167 432.02 56.55C432.32 56.8167 432.587 57.3333 432.82 58.1C433.087 58.8333 433.22 59.7167 433.22 60.75C433.22 63.1833 432.42 65 430.82 66.2C429.253 67.3667 427.37 67.95 425.17 67.95C423.003 67.95 421.137 67.6 419.57 66.9C418.003 66.2 417.22 65.3333 417.22 64.3C417.22 63.8333 417.387 63.4167 417.72 63.05C418.053 62.65 418.437 62.45 418.87 62.45C418.97 62.45 419.12 62.4833 419.32 62.55C422.42 63.7833 424.387 64.4 425.22 64.4C426.62 64.4 427.703 64.05 428.47 63.35C429.27 62.65 429.67 61.7333 429.67 60.6C429.67 59.7 429.387 58.9833 428.82 58.45C428.253 57.9167 427.553 57.5167 426.72 57.25C425.92 56.95 424.82 56.65 423.42 56.35L421.57 55.9C420.303 55.5333 419.27 54.95 418.47 54.15C417.603 53.2833 417.17 52.0833 417.17 50.55C417.17 48.9833 417.97 47.65 419.57 46.55C421.137 45.4167 423.087 44.85 425.42 44.85C427.687 44.85 429.437 45.15 430.67 45.75ZM441.339 32.35C442.573 32.35 443.256 32.7667 443.389 33.6L442.939 50.65C442.939 52.6833 442.956 53.8833 442.989 54.25C442.889 54.65 442.639 55.0333 442.239 55.4C441.839 55.7333 441.439 55.9 441.039 55.9C440.539 55.9 440.123 55.5333 439.789 54.8C439.289 46.4 439.039 39.3333 439.039 33.6C439.339 32.7667 440.106 32.35 441.339 32.35ZM443.489 61.9C443.823 62.2 443.989 62.8333 443.989 63.8C443.989 65.5667 443.256 66.45 441.789 66.45C441.056 66.4167 440.439 66.1333 439.939 65.6C439.439 65.0333 439.189 64.4 439.189 63.7C439.189 63.0333 439.423 62.5167 439.889 62.15C440.356 61.65 440.973 61.4 441.739 61.4C442.573 61.4 443.156 61.5667 443.489 61.9Z" fill="white"/>
<defs>
<filter id="filter0_i_99_204" x="0" y="-3" width="555" height="112" filterUnits="userSpaceOnUse" color-interpolation-filters="sRGB">
<feFlood flood-opacity="0" result="BackgroundImageFix"/>
<feBlend mode="normal" in="SourceGraphic" in2="BackgroundImageFix" result="shape"/>
<feColorMatrix in="SourceAlpha" type="matrix" values="0 0 0 0 0 0 0 0 0 0 0 0 0 0 0 0 0 0 127 0" result="hardAlpha"/>
<feOffset dx="5" dy="-3"/>
<feGaussianBlur stdDeviation="2"/>
<feComposite in2="hardAlpha" operator="arithmetic" k2="-1" k3="1"/>
<feColorMatrix type="matrix" values="0 0 0 0 0 0 0 0 0 0 0 0 0 0 0 0 0 0 0.25 0"/>
<feBlend mode="normal" in2="shape" result="effect1_innerShadow_99_204"/>
</filter>
<linearGradient id="paint0_linear_99_204" x1="0" y1="54.5" x2="551" y2="54.5" gradientUnits="userSpaceOnUse">
<stop stop-color="#29867D"/>
<stop offset="1" stop-color="#0A201E"/>
</linearGradient>
</defs>
</svg>
