<svg width="1440" height="810" viewBox="0 0 1440 810" fill="none" xmlns="http://www.w3.org/2000/svg">
<path d="M1440 0H0V810H1440V0Z" fill="#973961"/>
<path d="M630 810C649.725 740.475 669.525 670.95 704.7 612.975C739.875 555 790.5 508.5 821.025 452.625C851.55 396.75 861.975 331.425 890.55 260.55C919.125 189.75 965.85 113.25 1035 108.525C1104.15 103.725 1195.8 170.625 1267.05 164.55C1338.3 158.4 1389.15 79.2 1440 0V810H630Z" fill="#D62B70"/>
<path d="M731.25 810C748.5 749.175 765.825 688.35 796.575 637.575C827.4 586.875 871.65 546.225 898.35 497.325C925.125 448.425 934.275 391.275 959.25 329.25C984.225 267.225 1025.1 200.4 1085.62 196.2C1146.15 192 1226.33 250.575 1288.65 245.175C1350.98 239.85 1395.53 170.55 1440 101.25V810H731.25Z" fill="#FF006C"/>
<path d="M832.5 810C847.35 757.875 862.125 705.75 888.525 662.25C914.925 618.75 952.875 583.875 975.75 541.95C998.625 500.025 1006.5 451.05 1027.95 397.95C1049.4 344.775 1084.35 287.475 1136.25 283.875C1188.15 280.35 1256.85 330.525 1310.25 325.875C1363.73 321.3 1401.83 261.9 1440 202.5V810H832.5Z" fill="#60253F"/>
<path d="M933.75 810C946.125 766.575 958.425 723.075 980.4 686.85C1002.45 650.625 1034.03 621.6 1053.15 586.65C1072.2 551.7 1078.73 510.9 1096.58 466.575C1114.5 422.325 1143.68 374.55 1186.88 371.55C1230.08 368.625 1287.38 410.4 1331.93 406.575C1376.4 402.75 1408.2 353.25 1440 303.75V810H933.75Z" fill="#522337"/>
<path d="M1035 810C1044.9 775.275 1054.72 740.475 1072.35 711.45C1089.9 682.5 1115.25 659.25 1130.47 631.275C1145.77 603.375 1151.03 570.75 1165.28 535.275C1179.6 499.875 1202.93 461.625 1237.5 459.225C1272.07 456.9 1317.9 490.35 1353.53 487.275C1389.15 484.2 1414.58 444.6 1440 405V810H1035Z" fill="#623448"/>
<path d="M1136.25 810C1143.68 783.9 1151.1 757.875 1164.22 736.125C1177.42 714.375 1196.4 696.975 1207.88 675.975C1219.35 655.05 1223.25 630.525 1233.97 603.975C1244.7 577.425 1262.18 548.7 1288.13 546.975C1314.08 545.175 1348.43 570.225 1375.13 567.975C1401.83 565.65 1420.95 535.95 1440 506.25V810H1136.25Z" fill="#361D28"/>
<path d="M1237.5 810C1242.45 792.6 1247.4 775.275 1256.17 760.725C1264.95 746.25 1277.62 734.625 1285.27 720.675C1292.85 706.65 1295.47 690.375 1302.67 672.675C1309.8 654.9 1321.43 635.85 1338.75 634.65C1356.07 633.45 1378.95 650.175 1396.73 648.6C1414.57 647.1 1427.25 627.3 1440 607.5V810H1237.5Z" fill="#291920"/>
<path d="M1338.75 810C1341.22 801.3 1343.7 792.6 1348.05 785.4C1352.48 778.125 1358.78 772.35 1362.6 765.3C1366.43 758.325 1367.78 750.15 1371.3 741.3C1374.9 732.45 1380.75 722.925 1389.38 722.325C1398 721.725 1409.47 730.05 1418.4 729.3C1427.25 728.55 1433.62 718.65 1440 708.75V810H1338.75Z" fill="#23171C"/>
<path d="M810 0C734.925 55.6749 659.775 111.35 622.275 166.128C584.775 220.906 584.925 274.787 565.05 325.081C545.25 375.376 505.5 422.083 467.25 465.576C428.925 508.995 392.175 549.126 352.125 607.715C312.075 666.305 268.875 743.278 209.625 779.597C150.45 815.917 75.225 811.508 0 807.099V0H810Z" fill="#D62B70"/>
<path d="M708.75 0C643.05 48.7248 577.35 97.4497 544.5 145.352C511.725 193.33 511.8 240.411 494.475 284.428C477.075 328.444 442.275 369.322 408.825 407.361C375.3 445.399 343.125 480.523 308.1 531.714C273.075 582.979 235.275 650.387 183.45 682.148C131.625 713.909 65.775 710.097 0 706.211V0H708.75Z" fill="#FF006C"/>
<path d="M607.5 0C551.175 41.7748 494.85 83.5497 466.725 124.577C438.6 165.679 438.675 206.109 423.825 243.774C408.975 281.513 379.125 316.562 350.4 349.145C321.675 381.728 294.075 411.845 264.075 455.787C234.075 499.729 201.675 557.496 157.2 584.698C112.8 611.9 56.4 608.612 0 605.324V0H607.5Z" fill="#60253F"/>
<path d="M506.25 0C459.3 34.8248 412.35 69.5749 388.95 103.877C365.475 138.104 365.55 171.733 353.175 203.195C340.8 234.582 315.9 263.802 292.05 291.004C268.125 318.131 245.1 343.241 220.05 379.785C195.075 416.403 168.075 464.53 131.025 487.248C93.975 509.967 47.025 507.202 0 504.437V0H506.25Z" fill="#522337"/>
<path d="M405 0C367.425 27.8748 329.925 55.6749 311.175 83.1013C292.425 110.453 292.425 137.356 282.525 162.541C272.625 187.725 252.75 211.041 233.625 232.788C214.5 254.46 196.05 274.563 176.1 303.858C156.075 333.152 134.4 371.639 104.85 389.799C75.225 407.958 37.575 405.717 0 403.549V0H405Z" fill="#623448"/>
<path d="M303.75 0C275.55 20.85 247.425 41.7748 233.325 62.326C219.3 82.8771 219.375 103.055 211.875 121.887C204.45 140.794 189.525 158.281 175.2 174.572C160.875 190.864 147.075 205.96 132.075 227.856C117.075 249.827 100.8 278.748 78.6 292.349C56.4 305.95 28.2 304.306 0 302.662V0H303.75Z" fill="#361D28"/>
<path d="M202.5 0C183.75 13.9 164.925 27.8748 155.55 41.5506C146.175 55.2265 146.25 68.6781 141.3 81.233C136.35 93.8626 126.375 105.521 116.775 116.357C107.25 127.267 98.025 137.282 88.05 151.929C78 166.576 67.2 185.857 52.425 194.899C37.575 203.942 18.825 202.896 0 201.775V0H202.5Z" fill="#291920"/>
<path d="M101.25 0C91.875 6.95002 82.5 13.9 77.775 20.7753C73.125 27.6506 73.125 34.3764 70.65 40.6539C68.175 46.9313 63.15 52.7603 58.425 58.2157C53.625 63.5964 49.05 68.6781 44.025 75.9271C39 83.2507 33.6 92.8911 26.175 97.4497C18.825 102.008 9.375 101.41 0 100.887V0H101.25Z" fill="#23171C"/>
</svg>
