<svg width="1440" height="810" viewBox="0 0 1440 810" fill="none" xmlns="http://www.w3.org/2000/svg">
<g clip-path="url(#clip0_54_1540)">
<g clip-path="url(#clip1_54_1540)">
<path d="M1440 0H0V810H1440V0Z" fill="#862980"/>
<path d="M630 810C649.725 740.475 669.525 670.95 704.7 612.975C739.875 555 790.5 508.5 821.025 452.625C851.55 396.75 861.975 331.425 890.55 260.55C919.125 189.75 965.85 113.25 1035 108.525C1104.15 103.725 1195.8 170.625 1267.05 164.55C1338.3 158.4 1389.15 79.2 1440 0V810H630Z" fill="#7E2878"/>
<path d="M731.25 810C748.5 749.175 765.825 688.35 796.575 637.575C827.4 586.875 871.65 546.225 898.35 497.325C925.125 448.425 934.275 391.275 959.25 329.25C984.225 267.225 1025.1 200.4 1085.62 196.2C1146.15 192 1226.33 250.575 1288.65 245.175C1350.98 239.85 1395.53 170.55 1440 101.25V810H731.25Z" fill="#6F276A"/>
<path d="M832.5 810C847.35 757.875 862.125 705.75 888.525 662.25C914.925 618.75 952.875 583.875 975.75 541.95C998.625 500.025 1006.5 451.05 1027.95 397.95C1049.4 344.775 1084.35 287.475 1136.25 283.875C1188.15 280.35 1256.85 330.525 1310.25 325.875C1363.72 321.3 1401.83 261.9 1440 202.5V810H832.5Z" fill="#60255C"/>
<path d="M933.75 810C946.125 766.575 958.425 723.075 980.4 686.85C1002.45 650.625 1034.03 621.6 1053.15 586.65C1072.2 551.7 1078.73 510.9 1096.58 466.575C1114.5 422.325 1143.68 374.55 1186.88 371.55C1230.08 368.625 1287.38 410.4 1331.93 406.575C1376.4 402.75 1408.2 353.25 1440 303.75V810H933.75Z" fill="#52234F"/>
<path d="M1035 810C1044.9 775.275 1054.72 740.475 1072.35 711.45C1089.9 682.5 1115.25 659.25 1130.47 631.275C1145.77 603.375 1151.03 570.75 1165.28 535.275C1179.6 499.875 1202.93 461.625 1237.5 459.225C1272.07 456.9 1317.9 490.35 1353.53 487.275C1389.15 484.2 1414.58 444.6 1440 405V810H1035Z" fill="#442042"/>
<path d="M1136.25 810C1143.67 783.9 1151.1 757.875 1164.22 736.125C1177.42 714.375 1196.4 696.975 1207.88 675.975C1219.35 655.05 1223.25 630.525 1233.97 603.975C1244.7 577.425 1262.18 548.7 1288.12 546.975C1314.07 545.175 1348.43 570.225 1375.12 567.975C1401.83 565.65 1420.95 535.95 1440 506.25V810H1136.25Z" fill="#361D34"/>
<path d="M1237.5 810C1242.45 792.6 1247.4 775.275 1256.17 760.725C1264.95 746.25 1277.62 734.625 1285.27 720.675C1292.85 706.65 1295.47 690.375 1302.67 672.675C1309.8 654.9 1321.43 635.85 1338.75 634.65C1356.07 633.45 1378.95 650.175 1396.73 648.6C1414.57 647.1 1427.25 627.3 1440 607.5V810H1237.5Z" fill="#291928"/>
<path d="M1338.75 810C1341.22 801.3 1343.7 792.6 1348.05 785.4C1352.48 778.125 1358.78 772.35 1362.6 765.3C1366.43 758.325 1367.78 750.15 1371.3 741.3C1374.9 732.45 1380.75 722.925 1389.38 722.325C1398 721.725 1409.47 730.05 1418.4 729.3C1427.25 728.55 1433.62 718.65 1440 708.75V810H1338.75Z" fill="#231722"/>
<path d="M810 0C734.925 55.875 659.775 111.75 622.275 166.725C584.775 221.7 584.925 275.775 565.05 326.25C545.25 376.725 505.5 423.6 467.25 467.25C428.925 510.825 392.175 551.1 352.125 609.9C312.075 668.7 268.875 745.95 209.625 782.4C150.45 818.85 75.225 814.425 0 810V0H810Z" fill="#7E2878"/>
<path d="M708.75 0C643.05 48.9 577.35 97.8 544.5 145.875C511.725 194.025 511.8 241.275 494.475 285.45C477.075 329.625 442.275 370.65 408.825 408.825C375.3 447 343.125 482.25 308.1 533.625C273.075 585.075 235.275 652.725 183.45 684.6C131.625 716.475 65.775 712.65 0 708.75V0H708.75Z" fill="#6F276A"/>
<path d="M607.5 0C551.175 41.925 494.85 83.85 466.725 125.025C438.6 166.275 438.675 206.85 423.825 244.65C408.975 282.525 379.125 317.7 350.4 350.4C321.675 383.1 294.075 413.325 264.075 457.425C234.075 501.525 201.675 559.5 157.2 586.8C112.8 614.1 56.4 610.8 0 607.5V0H607.5Z" fill="#60255C"/>
<path d="M506.25 0C459.3 34.95 412.35 69.825 388.95 104.25C365.475 138.6 365.55 172.35 353.175 203.925C340.8 235.425 315.9 264.75 292.05 292.05C268.125 319.275 245.1 344.475 220.05 381.15C195.075 417.9 168.075 466.2 131.025 489C93.975 511.8 47.025 509.025 0 506.25V0H506.25Z" fill="#52234F"/>
<path d="M405 0C367.425 27.975 329.925 55.875 311.175 83.4C292.425 110.85 292.425 137.85 282.525 163.125C272.625 188.4 252.75 211.8 233.625 233.625C214.5 255.375 196.05 275.55 176.1 304.95C156.075 334.35 134.4 372.975 104.85 391.2C75.225 409.425 37.575 407.175 0 405V0H405Z" fill="#442042"/>
<path d="M303.75 0C275.55 20.925 247.425 41.925 233.325 62.55C219.3 83.175 219.375 103.425 211.875 122.325C204.45 141.3 189.525 158.85 175.2 175.2C160.875 191.55 147.075 206.7 132.075 228.675C117.075 250.725 100.8 279.75 78.6 293.4C56.4 307.05 28.2 305.4 0 303.75V0H303.75Z" fill="#361D34"/>
<path d="M202.5 0C183.75 13.95 164.925 27.975 155.55 41.7C146.175 55.425 146.25 68.925 141.3 81.525C136.35 94.2 126.375 105.9 116.775 116.775C107.25 127.725 98.025 137.775 88.05 152.475C78 167.175 67.2 186.525 52.425 195.6C37.575 204.675 18.825 203.625 0 202.5V0H202.5Z" fill="#291928"/>
<path d="M101.25 0C91.875 6.975 82.5 13.95 77.775 20.85C73.125 27.75 73.125 34.5 70.65 40.8C68.175 47.1 63.15 52.95 58.425 58.425C53.625 63.825 49.05 68.925 44.025 76.2C39 83.55 33.6 93.225 26.175 97.8C18.825 102.375 9.375 101.775 0 101.25V0H101.25Z" fill="#231722"/>
</g>
</g>
<defs>
<clipPath id="clip0_54_1540">
<rect width="1440" height="810" fill="white"/>
</clipPath>
<clipPath id="clip1_54_1540">
<rect width="1440" height="810" fill="white"/>
</clipPath>
</defs>
</svg>
