<svg id="visual" viewBox="0 0 1920 1080" width="1920" height="1080" xmlns="http://www.w3.org/2000/svg" xmlns:xlink="http://www.w3.org/1999/xlink" version="1.1"><rect x="0" y="0" width="1920" height="1080" fill="#29867D"></rect><defs><linearGradient id="grad1_0" x1="43.8%" y1="100%" x2="100%" y2="0%"><stop offset="14.444444444444446%" stop-color="#172322" stop-opacity="1"></stop><stop offset="85.55555555555554%" stop-color="#172322" stop-opacity="1"></stop></linearGradient></defs><defs><linearGradient id="grad1_1" x1="43.8%" y1="100%" x2="100%" y2="0%"><stop offset="14.444444444444446%" stop-color="#172322" stop-opacity="1"></stop><stop offset="85.55555555555554%" stop-color="#1b302e" stop-opacity="1"></stop></linearGradient></defs><defs><linearGradient id="grad1_2" x1="43.8%" y1="100%" x2="100%" y2="0%"><stop offset="14.444444444444446%" stop-color="#1e3d3b" stop-opacity="1"></stop><stop offset="85.55555555555554%" stop-color="#1b302e" stop-opacity="1"></stop></linearGradient></defs><defs><linearGradient id="grad1_3" x1="43.8%" y1="100%" x2="100%" y2="0%"><stop offset="14.444444444444446%" stop-color="#1e3d3b" stop-opacity="1"></stop><stop offset="85.55555555555554%" stop-color="#214b47" stop-opacity="1"></stop></linearGradient></defs><defs><linearGradient id="grad1_4" x1="43.8%" y1="100%" x2="100%" y2="0%"><stop offset="14.444444444444446%" stop-color="#245954" stop-opacity="1"></stop><stop offset="85.55555555555554%" stop-color="#214b47" stop-opacity="1"></stop></linearGradient></defs><defs><linearGradient id="grad1_5" x1="43.8%" y1="100%" x2="100%" y2="0%"><stop offset="14.444444444444446%" stop-color="#245954" stop-opacity="1"></stop><stop offset="85.55555555555554%" stop-color="#266862" stop-opacity="1"></stop></linearGradient></defs><defs><linearGradient id="grad1_6" x1="43.8%" y1="100%" x2="100%" y2="0%"><stop offset="14.444444444444446%" stop-color="#28776f" stop-opacity="1"></stop><stop offset="85.55555555555554%" stop-color="#266862" stop-opacity="1"></stop></linearGradient></defs><defs><linearGradient id="grad1_7" x1="43.8%" y1="100%" x2="100%" y2="0%"><stop offset="14.444444444444446%" stop-color="#28776f" stop-opacity="1"></stop><stop offset="85.55555555555554%" stop-color="#29867d" stop-opacity="1"></stop></linearGradient></defs><defs><linearGradient id="grad2_0" x1="0%" y1="100%" x2="56.3%" y2="0%"><stop offset="14.444444444444446%" stop-color="#172322" stop-opacity="1"></stop><stop offset="85.55555555555554%" stop-color="#172322" stop-opacity="1"></stop></linearGradient></defs><defs><linearGradient id="grad2_1" x1="0%" y1="100%" x2="56.3%" y2="0%"><stop offset="14.444444444444446%" stop-color="#1b302e" stop-opacity="1"></stop><stop offset="85.55555555555554%" stop-color="#172322" stop-opacity="1"></stop></linearGradient></defs><defs><linearGradient id="grad2_2" x1="0%" y1="100%" x2="56.3%" y2="0%"><stop offset="14.444444444444446%" stop-color="#1b302e" stop-opacity="1"></stop><stop offset="85.55555555555554%" stop-color="#1e3d3b" stop-opacity="1"></stop></linearGradient></defs><defs><linearGradient id="grad2_3" x1="0%" y1="100%" x2="56.3%" y2="0%"><stop offset="14.444444444444446%" stop-color="#214b47" stop-opacity="1"></stop><stop offset="85.55555555555554%" stop-color="#1e3d3b" stop-opacity="1"></stop></linearGradient></defs><defs><linearGradient id="grad2_4" x1="0%" y1="100%" x2="56.3%" y2="0%"><stop offset="14.444444444444446%" stop-color="#214b47" stop-opacity="1"></stop><stop offset="85.55555555555554%" stop-color="#245954" stop-opacity="1"></stop></linearGradient></defs><defs><linearGradient id="grad2_5" x1="0%" y1="100%" x2="56.3%" y2="0%"><stop offset="14.444444444444446%" stop-color="#266862" stop-opacity="1"></stop><stop offset="85.55555555555554%" stop-color="#245954" stop-opacity="1"></stop></linearGradient></defs><defs><linearGradient id="grad2_6" x1="0%" y1="100%" x2="56.3%" y2="0%"><stop offset="14.444444444444446%" stop-color="#266862" stop-opacity="1"></stop><stop offset="85.55555555555554%" stop-color="#28776f" stop-opacity="1"></stop></linearGradient></defs><defs><linearGradient id="grad2_7" x1="0%" y1="100%" x2="56.3%" y2="0%"><stop offset="14.444444444444446%" stop-color="#29867d" stop-opacity="1"></stop><stop offset="85.55555555555554%" stop-color="#28776f" stop-opacity="1"></stop></linearGradient></defs><g transform="translate(1920, 1080)"><path d="M-1080 0C-1053.7 -92.7 -1027.3 -185.4 -980.4 -262.7C-933.5 -340 -866 -402 -825.3 -476.5C-784.6 -551 -770.7 -638.1 -732.6 -732.6C-694.5 -827 -632.2 -929 -540 -935.3C-447.8 -941.7 -325.6 -852.5 -230.6 -860.6C-135.6 -868.8 -67.8 -974.4 0 -1080L0 0Z" fill="#287e76"></path><path d="M-945 0C-922 -81.1 -898.9 -162.2 -857.9 -229.9C-816.8 -297.5 -757.8 -351.7 -722.2 -416.9C-686.5 -482.1 -674.3 -558.3 -641 -641C-607.7 -723.7 -553.2 -812.8 -472.5 -818.4C-391.8 -824 -284.9 -745.9 -201.8 -753.1C-118.7 -760.2 -59.3 -852.6 0 -945L0 0Z" fill="#276f69"></path><path d="M-810 0C-790.2 -69.5 -770.5 -139 -735.3 -197C-700.1 -255 -649.5 -301.5 -619 -357.4C-588.5 -413.3 -578 -478.6 -549.4 -549.4C-520.8 -620.3 -474.2 -696.7 -405 -701.5C-335.8 -706.2 -244.2 -639.3 -173 -645.5C-101.7 -651.6 -50.9 -730.8 0 -810L0 0Z" fill="#25605b"></path><path d="M-675 0C-658.5 -57.9 -642.1 -115.9 -612.8 -164.2C-583.4 -212.5 -541.3 -251.2 -515.8 -297.8C-490.4 -344.4 -481.7 -398.8 -457.9 -457.9C-434 -516.9 -395.1 -580.6 -337.5 -584.6C-279.9 -588.5 -203.5 -532.8 -144.1 -537.9C-84.8 -543 -42.4 -609 0 -675L0 0Z" fill="#23524e"></path><path d="M-540 0C-526.8 -46.3 -513.7 -92.7 -490.2 -131.4C-466.8 -170 -433 -201 -412.7 -238.3C-392.3 -275.5 -385.3 -319 -366.3 -366.3C-347.2 -413.5 -316.1 -464.5 -270 -467.7C-223.9 -470.8 -162.8 -426.2 -115.3 -430.3C-67.8 -434.4 -33.9 -487.2 0 -540L0 0Z" fill="#204441"></path><path d="M-405 0C-395.1 -34.8 -385.2 -69.5 -367.7 -98.5C-350.1 -127.5 -324.8 -150.7 -309.5 -178.7C-294.2 -206.6 -289 -239.3 -274.7 -274.7C-260.4 -310.1 -237.1 -348.4 -202.5 -350.7C-167.9 -353.1 -122.1 -319.7 -86.5 -322.7C-50.9 -325.8 -25.4 -365.4 0 -405L0 0Z" fill="#1d3634"></path><path d="M-270 0C-263.4 -23.2 -256.8 -46.3 -245.1 -65.7C-233.4 -85 -216.5 -100.5 -206.3 -119.1C-196.2 -137.8 -192.7 -159.5 -183.1 -183.1C-173.6 -206.8 -158.1 -232.2 -135 -233.8C-111.9 -235.4 -81.4 -213.1 -57.7 -215.2C-33.9 -217.2 -17 -243.6 0 -270L0 0Z" fill="#192928"></path><path d="M-135 0C-131.7 -11.6 -128.4 -23.2 -122.6 -32.8C-116.7 -42.5 -108.3 -50.2 -103.2 -59.6C-98.1 -68.9 -96.3 -79.8 -91.6 -91.6C-86.8 -103.4 -79 -116.1 -67.5 -116.9C-56 -117.7 -40.7 -106.6 -28.8 -107.6C-17 -108.6 -8.5 -121.8 0 -135L0 0Z" fill="#172322"></path></g><g transform="translate(0, 0)"><path d="M1080 0C979.9 74.5 879.7 149 829.7 222.3C779.7 295.6 779.9 367.7 753.4 435C727 502.3 674 564.8 623 623C571.9 681.1 522.9 734.8 469.5 813.2C416.1 891.6 358.5 994.6 279.5 1043.2C200.6 1091.8 100.3 1085.9 0 1080L0 0Z" fill="#287e76"></path><path d="M945 0C857.4 65.2 769.8 130.4 726 194.5C682.3 258.7 682.4 321.7 659.3 380.6C636.1 439.5 589.7 494.2 545.1 545.1C500.4 596 457.5 643 410.8 711.5C364.1 780.1 313.7 870.3 244.6 912.8C175.5 955.3 87.7 950.2 0 945L0 0Z" fill="#276f69"></path><path d="M810 0C734.9 55.9 659.8 111.8 622.3 166.7C584.8 221.7 584.9 275.8 565.1 326.2C545.3 376.7 505.5 423.6 467.2 467.2C428.9 510.8 392.1 551.1 352.1 609.9C312.1 668.7 268.9 746 209.6 782.4C150.4 818.8 75.2 814.4 0 810L0 0Z" fill="#25605b"></path><path d="M675 0C612.4 46.6 549.8 93.1 518.6 139C487.3 184.8 487.4 229.8 470.9 271.9C454.4 313.9 421.2 353 389.4 389.4C357.5 425.7 326.8 459.3 293.4 508.2C260.1 557.2 224.1 621.6 174.7 652C125.3 682.4 62.7 678.7 0 675L0 0Z" fill="#23524e"></path><path d="M540 0C489.9 37.3 439.9 74.5 414.9 111.2C389.9 147.8 389.9 183.8 376.7 217.5C363.5 251.2 337 282.4 311.5 311.5C286 340.5 261.4 367.4 234.8 406.6C208.1 445.8 179.2 497.3 139.8 521.6C100.3 545.9 50.1 542.9 0 540L0 0Z" fill="#204441"></path><path d="M405 0C367.4 27.9 329.9 55.9 311.1 83.4C292.4 110.9 292.5 137.9 282.5 163.1C272.6 188.4 252.7 211.8 233.6 233.6C214.5 255.4 196.1 275.6 176.1 304.9C156.1 334.3 134.4 373 104.8 391.2C75.2 409.4 37.6 407.2 0 405L0 0Z" fill="#1d3634"></path><path d="M270 0C245 18.6 219.9 37.3 207.4 55.6C194.9 73.9 195 91.9 188.4 108.7C181.8 125.6 168.5 141.2 155.7 155.7C143 170.3 130.7 183.7 117.4 203.3C104 222.9 89.6 248.7 69.9 260.8C50.1 272.9 25.1 271.5 0 270L0 0Z" fill="#192928"></path><path d="M135 0C122.5 9.3 110 18.6 103.7 27.8C97.5 37 97.5 46 94.2 54.4C90.9 62.8 84.2 70.6 77.9 77.9C71.5 85.1 65.4 91.9 58.7 101.6C52 111.4 44.8 124.3 34.9 130.4C25.1 136.5 12.5 135.7 0 135L0 0Z" fill="#172322"></path></g></svg>