<svg width="1440" height="809" viewBox="0 0 1440 809" fill="none" xmlns="http://www.w3.org/2000/svg">
<path d="M796.275 369L782.775 229.5L595.725 244.5L796.275 369Z" fill="#862980" stroke="#1B3130" stroke-width="0.416667" stroke-linejoin="bevel"/>
<path d="M595.725 244.5L615.975 446.25L796.275 369L595.725 244.5Z" fill="#7E2878" stroke="#1E3D3B" stroke-width="0.416667" stroke-linejoin="bevel"/>
<path d="M782.775 229.5L648.975 120L595.725 244.5L782.775 229.5Z" fill="#6F276A" stroke="#214946" stroke-width="0.416667" stroke-linejoin="bevel"/>
<path d="M502.5 144L498 253.5L595.725 244.5L502.5 144Z" fill="#60255C" stroke="#235552" stroke-width="0.416667" stroke-linejoin="bevel"/>
<path d="M595.725 244.5L498 253.5L615.975 446.25L595.725 244.5Z" fill="#52234F" stroke="#1F4341" stroke-width="0.416667" stroke-linejoin="bevel"/>
<path d="M919.5 111.75L779.025 119.25L782.775 229.5L919.5 111.75Z" fill="#442042" stroke="#245C58" stroke-width="0.416667" stroke-linejoin="bevel"/>
<path d="M782.775 229.5L779.025 119.25L648.975 120L782.775 229.5Z" fill="#361D34" stroke="#1D3736" stroke-width="0.416667" stroke-linejoin="bevel"/>
<path d="M615.975 446.25L775.275 537L796.275 369L615.975 446.25Z" fill="#60255C" stroke="#235552" stroke-width="0.416667" stroke-linejoin="bevel"/>
<path d="M648.975 120L502.5 144L595.725 244.5L648.975 120Z" fill="#361D34" stroke="#1D3736" stroke-width="0.416667" stroke-linejoin="bevel"/>
<path d="M775.275 537L935.25 405.75L796.275 369L775.275 537Z" fill="#291928" stroke="#266863" stroke-width="0.416667" stroke-linejoin="bevel"/>
<path d="M796.275 369L997.5 240.75L782.775 229.5L796.275 369Z" fill="#6F276A" stroke="#214946" stroke-width="0.416667" stroke-linejoin="bevel"/>
<path d="M359.775 367.5L459.75 431.25L498 253.5L359.775 367.5Z" fill="#6F276A" stroke="#214946" stroke-width="0.416667" stroke-linejoin="bevel"/>
<path d="M498 253.5L459.75 431.25L615.975 446.25L498 253.5Z" fill="#60255C" stroke="#235552" stroke-width="0.416667" stroke-linejoin="bevel"/>
<path d="M615.975 446.25L597.975 570.75L775.275 537L615.975 446.25Z" fill="#60255C" stroke="#235552" stroke-width="0.416667" stroke-linejoin="bevel"/>
<path d="M522 544.5L597.975 570.75L615.975 446.25L522 544.5Z" fill="#361D34" stroke="#1D3736" stroke-width="0.416667" stroke-linejoin="bevel"/>
<path d="M459.75 431.25L522 544.5L615.975 446.25L459.75 431.25Z" fill="#60255C" stroke="#235552" stroke-width="0.416667" stroke-linejoin="bevel"/>
<path d="M997.5 240.75L919.5 111.75L782.775 229.5L997.5 240.75Z" fill="#361D34" stroke="#1D3736" stroke-width="0.416667" stroke-linejoin="bevel"/>
<path d="M779.025 119.25L672.975 0L648.975 120L779.025 119.25Z" fill="#291928" stroke="#266863" stroke-width="0.416667" stroke-linejoin="bevel"/>
<path d="M816.525 0H672.975L779.025 119.25L816.525 0Z" fill="#361D34" stroke="#1D3736" stroke-width="0.416667" stroke-linejoin="bevel"/>
<path d="M648.975 120L458.25 0L502.5 144L648.975 120Z" fill="#7E2878" stroke="#1E3D3B" stroke-width="0.416667" stroke-linejoin="bevel"/>
<path d="M935.25 405.75L997.5 240.75L796.275 369L935.25 405.75Z" fill="#442042" stroke="#245C58" stroke-width="0.416667" stroke-linejoin="bevel"/>
<path d="M919.5 111.75L816.525 0L779.025 119.25L919.5 111.75Z" fill="#231722" stroke="#25625D" stroke-width="0.416667" stroke-linejoin="bevel"/>
<path d="M775.275 537L970.5 499.5L935.25 405.75L775.275 537Z" fill="#7E2878" stroke="#1E3D3B" stroke-width="0.416667" stroke-linejoin="bevel"/>
<path d="M1146.98 437.25L1113.23 232.5L997.5 240.75L1146.98 437.25Z" fill="#6F276A" stroke="#214946" stroke-width="0.416667" stroke-linejoin="bevel"/>
<path d="M339.525 303L359.775 367.5L498 253.5L339.525 303Z" fill="#52234F" stroke="#1F4341" stroke-width="0.416667" stroke-linejoin="bevel"/>
<path d="M287.775 571.5L456.75 671.25L522 544.5L287.775 571.5Z" fill="#442042" stroke="#245C58" stroke-width="0.416667" stroke-linejoin="bevel"/>
<path d="M338.775 135.75L339.525 303L498 253.5L338.775 135.75Z" fill="#60255C" stroke="#235552" stroke-width="0.416667" stroke-linejoin="bevel"/>
<path d="M597.975 570.75L780.525 668.25L775.275 537L597.975 570.75Z" fill="#442042" stroke="#245C58" stroke-width="0.416667" stroke-linejoin="bevel"/>
<path d="M775.275 537L780.525 668.25L970.5 499.5L775.275 537Z" fill="#442042" stroke="#245C58" stroke-width="0.416667" stroke-linejoin="bevel"/>
<path d="M616.725 693.75L780.525 668.25L597.975 570.75L616.725 693.75Z" fill="#291928" stroke="#266863" stroke-width="0.416667" stroke-linejoin="bevel"/>
<path d="M672.975 0H458.25L648.975 120L672.975 0Z" fill="#862980" stroke="#276F69" stroke-width="0.416667" stroke-linejoin="bevel"/>
<path d="M502.5 144L338.775 135.75L498 253.5L502.5 144Z" fill="#291928" stroke="#266863" stroke-width="0.416667" stroke-linejoin="bevel"/>
<path d="M456.75 671.25L597.975 570.75L522 544.5L456.75 671.25Z" fill="#7E2878" stroke="#1E3D3B" stroke-width="0.416667" stroke-linejoin="bevel"/>
<path d="M456.75 671.25L616.725 693.75L597.975 570.75L456.75 671.25Z" fill="#7E2878" stroke="#224F4C" stroke-width="0.416667" stroke-linejoin="bevel"/>
<path d="M458.25 0L338.775 135.75L502.5 144L458.25 0Z" fill="#231722" stroke="#25625D" stroke-width="0.416667" stroke-linejoin="bevel"/>
<path d="M1156.73 93.75L980.25 0L919.5 111.75L1156.73 93.75Z" fill="#231722" stroke="#25625D" stroke-width="0.416667" stroke-linejoin="bevel"/>
<path d="M919.5 111.75L980.25 0H816.525L919.5 111.75Z" fill="#442042" stroke="#245C58" stroke-width="0.416667" stroke-linejoin="bevel"/>
<path d="M1146.98 437.25L997.5 240.75L935.25 405.75L1146.98 437.25Z" fill="#291928" stroke="#266863" stroke-width="0.416667" stroke-linejoin="bevel"/>
<path d="M997.5 240.75L1156.73 93.75L919.5 111.75L997.5 240.75Z" fill="#7E2878" stroke="#224F4C" stroke-width="0.416667" stroke-linejoin="bevel"/>
<path d="M287.775 571.5L522 544.5L459.75 431.25L287.775 571.5Z" fill="#231722" stroke="#25625D" stroke-width="0.416667" stroke-linejoin="bevel"/>
<path d="M970.5 499.5L1146.98 437.25L935.25 405.75L970.5 499.5Z" fill="#862980" stroke="#276F69" stroke-width="0.416667" stroke-linejoin="bevel"/>
<path d="M1140.98 504L1146.98 437.25L970.5 499.5L1140.98 504Z" fill="#7E2878" stroke="#1E3D3B" stroke-width="0.416667" stroke-linejoin="bevel"/>
<path d="M458.25 0H329.775L338.775 135.75L458.25 0Z" fill="#6F276A" stroke="#214946" stroke-width="0.416667" stroke-linejoin="bevel"/>
<path d="M170.475 381.75L359.775 367.5L339.525 303L170.475 381.75Z" fill="#862980" stroke="#276F69" stroke-width="0.416667" stroke-linejoin="bevel"/>
<path d="M921 810L963 707.25L780.525 668.25L921 810Z" fill="#7E2878" stroke="#1E3D3B" stroke-width="0.416667" stroke-linejoin="bevel"/>
<path d="M780.525 668.25L963 707.25L970.5 499.5L780.525 668.25Z" fill="#7E2878" stroke="#1E3D3B" stroke-width="0.416667" stroke-linejoin="bevel"/>
<path d="M170.475 381.75L287.775 571.5L359.775 367.5L170.475 381.75Z" fill="#60255C" stroke="#235552" stroke-width="0.416667" stroke-linejoin="bevel"/>
<path d="M359.775 367.5L287.775 571.5L459.75 431.25L359.775 367.5Z" fill="#231722" stroke="#25625D" stroke-width="0.416667" stroke-linejoin="bevel"/>
<path d="M171.225 301.5L339.525 303L152.475 174.75L171.225 301.5Z" fill="#6F276A" stroke="#214946" stroke-width="0.416667" stroke-linejoin="bevel"/>
<path d="M1085.48 717.75L1140.98 504L970.5 499.5L1085.48 717.75Z" fill="#361D34" stroke="#1D3736" stroke-width="0.416667" stroke-linejoin="bevel"/>
<path d="M1113.23 232.5L1156.73 93.75L997.5 240.75L1113.23 232.5Z" fill="#52234F" stroke="#1F4341" stroke-width="0.416667" stroke-linejoin="bevel"/>
<path d="M1264.27 233.25L1156.72 93.75L1113.22 232.5L1264.27 233.25Z" fill="#6F276A" stroke="#214946" stroke-width="0.416667" stroke-linejoin="bevel"/>
<path d="M464.25 810H603.975L616.725 693.75L464.25 810Z" fill="#291928" stroke="#266863" stroke-width="0.416667" stroke-linejoin="bevel"/>
<path d="M616.725 693.75L786.525 810L780.525 668.25L616.725 693.75Z" fill="#60255C" stroke="#235552" stroke-width="0.416667" stroke-linejoin="bevel"/>
<path d="M464.25 810L616.725 693.75L456.75 671.25L464.25 810Z" fill="#7E2878" stroke="#224F4C" stroke-width="0.416667" stroke-linejoin="bevel"/>
<path d="M603.975 810H786.525L616.725 693.75L603.975 810Z" fill="#231722" stroke="#25625D" stroke-width="0.416667" stroke-linejoin="bevel"/>
<path d="M152.475 174.75L339.525 303L338.775 135.75L152.475 174.75Z" fill="#52234F" stroke="#1F4341" stroke-width="0.416667" stroke-linejoin="bevel"/>
<path d="M171.225 301.5L170.475 381.75L339.525 303L171.225 301.5Z" fill="#7E2878" stroke="#224F4C" stroke-width="0.416667" stroke-linejoin="bevel"/>
<path d="M1156.73 93.75L1146.98 0H980.25L1156.73 93.75Z" fill="#361D34" stroke="#1D3736" stroke-width="0.416667" stroke-linejoin="bevel"/>
<path d="M786.525 810H921L780.525 668.25L786.525 810Z" fill="#361D34" stroke="#1D3736" stroke-width="0.416667" stroke-linejoin="bevel"/>
<path d="M963 707.25L1085.48 717.75L970.5 499.5L963 707.25Z" fill="#52234F" stroke="#1F4341" stroke-width="0.416667" stroke-linejoin="bevel"/>
<path d="M344.775 810H464.25L456.75 671.25L344.775 810Z" fill="#6F276A" stroke="#214946" stroke-width="0.416667" stroke-linejoin="bevel"/>
<path d="M329.775 0L152.475 174.75L338.775 135.75L329.775 0Z" fill="#361D34" stroke="#1D3736" stroke-width="0.416667" stroke-linejoin="bevel"/>
<path d="M171.225 301.5L0 405L170.475 381.75L171.225 301.5Z" fill="#862980" stroke="#276F69" stroke-width="0.416667" stroke-linejoin="bevel"/>
<path d="M287.775 571.5L305.775 716.25L456.75 671.25L287.775 571.5Z" fill="#52234F" stroke="#1F4341" stroke-width="0.416667" stroke-linejoin="bevel"/>
<path d="M150.975 715.5L305.775 716.25L287.775 571.5L150.975 715.5Z" fill="#231722" stroke="#25625D" stroke-width="0.416667" stroke-linejoin="bevel"/>
<path d="M1093.73 810L1085.48 717.75L963 707.25L1093.73 810Z" fill="#52234F" stroke="#1F4341" stroke-width="0.416667" stroke-linejoin="bevel"/>
<path d="M150.975 715.5L174.975 548.25L0 659.25L150.975 715.5Z" fill="#442042" stroke="#245C58" stroke-width="0.416667" stroke-linejoin="bevel"/>
<path d="M170.475 381.75L174.975 548.25L287.775 571.5L170.475 381.75Z" fill="#361D34" stroke="#1D3736" stroke-width="0.416667" stroke-linejoin="bevel"/>
<path d="M1324.27 393.75L1264.27 233.25L1146.97 437.25L1324.27 393.75Z" fill="#862980" stroke="#1B3130" stroke-width="0.416667" stroke-linejoin="bevel"/>
<path d="M1146.97 437.25L1264.27 233.25L1113.22 232.5L1146.97 437.25Z" fill="#231722" stroke="#25625D" stroke-width="0.416667" stroke-linejoin="bevel"/>
<path d="M1156.72 93.75L1261.27 0H1146.97L1156.72 93.75Z" fill="#291928" stroke="#266863" stroke-width="0.416667" stroke-linejoin="bevel"/>
<path d="M1324.27 393.75L1146.97 437.25L1299.52 565.5L1324.27 393.75Z" fill="#52234F" stroke="#1F4341" stroke-width="0.416667" stroke-linejoin="bevel"/>
<path d="M132.225 810H344.775L305.775 716.25L132.225 810Z" fill="#862980" stroke="#276F69" stroke-width="0.416667" stroke-linejoin="bevel"/>
<path d="M305.775 716.25L344.775 810L456.75 671.25L305.775 716.25Z" fill="#231722" stroke="#25625D" stroke-width="0.416667" stroke-linejoin="bevel"/>
<path d="M1299.52 565.5L1146.97 437.25L1140.97 504L1299.52 565.5Z" fill="#862980" stroke="#276F69" stroke-width="0.416667" stroke-linejoin="bevel"/>
<path d="M921 810H1093.73L963 707.25L921 810Z" fill="#6F276A" stroke="#214946" stroke-width="0.416667" stroke-linejoin="bevel"/>
<path d="M1301.77 632.25L1299.52 565.5L1140.97 504L1301.77 632.25Z" fill="#862980" stroke="#1B3130" stroke-width="0.416667" stroke-linejoin="bevel"/>
<path d="M1316.02 132.75L1156.72 93.75L1264.27 233.25L1316.02 132.75Z" fill="#6F276A" stroke="#214946" stroke-width="0.416667" stroke-linejoin="bevel"/>
<path d="M1316.02 132.75L1261.27 0L1156.72 93.75L1316.02 132.75Z" fill="#862980" stroke="#1B3130" stroke-width="0.416667" stroke-linejoin="bevel"/>
<path d="M1440 263.25L1316.03 132.75L1264.28 233.25L1440 263.25Z" fill="#60255C" stroke="#235552" stroke-width="0.416667" stroke-linejoin="bevel"/>
<path d="M329.775 0H121.725L152.475 174.75L329.775 0Z" fill="#862980" stroke="#1B3130" stroke-width="0.416667" stroke-linejoin="bevel"/>
<path d="M0 405L174.975 548.25L170.475 381.75L0 405Z" fill="#291928" stroke="#266863" stroke-width="0.416667" stroke-linejoin="bevel"/>
<path d="M1301.77 632.25L1140.97 504L1085.47 717.75L1301.77 632.25Z" fill="#60255C" stroke="#235552" stroke-width="0.416667" stroke-linejoin="bevel"/>
<path d="M0 237.75L171.225 301.5L152.475 174.75L0 237.75Z" fill="#7E2878" stroke="#1E3D3B" stroke-width="0.416667" stroke-linejoin="bevel"/>
<path d="M174.975 548.25L150.975 715.5L287.775 571.5L174.975 548.25Z" fill="#862980" stroke="#276F69" stroke-width="0.416667" stroke-linejoin="bevel"/>
<path d="M1302.52 810L1301.77 632.25L1085.47 717.75L1302.52 810Z" fill="#361D34" stroke="#1D3736" stroke-width="0.416667" stroke-linejoin="bevel"/>
<path d="M1440 392.25V263.25L1324.28 393.75L1440 392.25Z" fill="#442042" stroke="#245C58" stroke-width="0.416667" stroke-linejoin="bevel"/>
<path d="M0 168.75V237.75L152.475 174.75L0 168.75Z" fill="#231722" stroke="#25625D" stroke-width="0.416667" stroke-linejoin="bevel"/>
<path d="M0 237.75V405L171.225 301.5L0 237.75Z" fill="#291928" stroke="#266863" stroke-width="0.416667" stroke-linejoin="bevel"/>
<path d="M121.725 0L0 168.75L152.475 174.75L121.725 0Z" fill="#7E2878" stroke="#1E3D3B" stroke-width="0.416667" stroke-linejoin="bevel"/>
<path d="M1440 392.25L1324.28 393.75L1440 538.5V392.25Z" fill="#862980" stroke="#276F69" stroke-width="0.416667" stroke-linejoin="bevel"/>
<path d="M1324.28 393.75L1440 263.25L1264.28 233.25L1324.28 393.75Z" fill="#52234F" stroke="#1F4341" stroke-width="0.416667" stroke-linejoin="bevel"/>
<path d="M1316.03 132.75L1440 0H1261.28L1316.03 132.75Z" fill="#231722" stroke="#25625D" stroke-width="0.416667" stroke-linejoin="bevel"/>
<path d="M0 405V582L174.975 548.25L0 405Z" fill="#231722" stroke="#25625D" stroke-width="0.416667" stroke-linejoin="bevel"/>
<path d="M1440 538.5L1324.28 393.75L1299.53 565.5L1440 538.5Z" fill="#442042" stroke="#245C58" stroke-width="0.416667" stroke-linejoin="bevel"/>
<path d="M150.975 715.5L132.225 810L305.775 716.25L150.975 715.5Z" fill="#862980" stroke="#276F69" stroke-width="0.416667" stroke-linejoin="bevel"/>
<path d="M0 810H132.225L150.975 715.5L0 810Z" fill="#442042" stroke="#245C58" stroke-width="0.416667" stroke-linejoin="bevel"/>
<path d="M121.725 0H0V168.75L121.725 0Z" fill="#291928" stroke="#266863" stroke-width="0.416667" stroke-linejoin="bevel"/>
<path d="M1440 263.25V156L1316.03 132.75L1440 263.25Z" fill="#361D34" stroke="#1D3736" stroke-width="0.416667" stroke-linejoin="bevel"/>
<path d="M0 582V659.25L174.975 548.25L0 582Z" fill="#6F276A" stroke="#214946" stroke-width="0.416667" stroke-linejoin="bevel"/>
<path d="M1440 704.25V538.5L1301.78 632.25L1440 704.25Z" fill="#6F276A" stroke="#214946" stroke-width="0.416667" stroke-linejoin="bevel"/>
<path d="M1301.78 632.25L1440 538.5L1299.53 565.5L1301.78 632.25Z" fill="#7E2878" stroke="#224F4C" stroke-width="0.416667" stroke-linejoin="bevel"/>
<path d="M1093.72 810H1302.52L1085.47 717.75L1093.72 810Z" fill="#862980" stroke="#276F69" stroke-width="0.416667" stroke-linejoin="bevel"/>
<path d="M1440 156V0L1316.03 132.75L1440 156Z" fill="#6F276A" stroke="#214946" stroke-width="0.416667" stroke-linejoin="bevel"/>
<path d="M1302.53 810L1440 704.25L1301.78 632.25L1302.53 810Z" fill="#442042" stroke="#245C58" stroke-width="0.416667" stroke-linejoin="bevel"/>
<path d="M0 659.25V810L150.975 715.5L0 659.25Z" fill="#231722" stroke="#25625D" stroke-width="0.416667" stroke-linejoin="bevel"/>
<path d="M1302.53 810H1440V704.25L1302.53 810Z" fill="#442042" stroke="#245C58" stroke-width="0.416667" stroke-linejoin="bevel"/>
</svg>
