<svg width="100" height="45" viewBox="0 0 100 45" fill="none" xmlns="http://www.w3.org/2000/svg">
<path d="M92.1705 14.1527C92.7114 16.3517 93.3811 19.0746 94.4815 19.8612C96.1494 21.0547 98.2925 21.7463 99.9999 22.136H0.170898C1.81971 21.605 6.96398 19.8788 8.70633 18.5095C10.6643 16.9685 12.0909 14.7673 13.1493 12.4559C13.2802 12.0894 14.4453 8.80448 14.9613 6.35781C14.9984 6.15951 15.0356 5.96602 15.0725 5.7812C15.0734 5.7751 15.0749 5.76772 15.0757 5.76227L15.0791 5.74382C15.0921 5.66584 15.1071 5.59605 15.1225 5.53076C15.7455 2.45068 16.2639 1.0876 16.5689 0.498155C16.682 0.229583 16.8235 0.0381807 16.9783 0.00577229C16.9868 0.00368662 16.9979 0.00160092 17.0064 0.00160092H17.0197C17.7536 -0.0813452 18.2937 3.07462 18.6226 5.8051C18.6226 5.8051 19.2455 10.6113 20.0971 13.2934C20.5715 14.5809 21.1134 15.6919 21.7106 16.4673C22.5936 17.6141 23.5976 18.0269 24.6838 17.1902C28.1448 14.5303 29.3816 8.15391 29.3816 8.15391C29.3816 8.15391 29.657 7.12679 30.0342 7.06726C30.3315 7.01994 30.6922 7.57601 31.0306 9.71673C31.5748 13.1652 33.191 18.875 35.0466 18.8989C36.5268 18.9194 37.9462 14.2449 38.9582 10.0113C39.4094 8.12492 39.7792 6.32653 40.0376 5.06925L40.0409 5.05345L40.0544 4.98766C40.1859 4.34779 40.2872 3.85528 40.3544 3.57615C40.5495 2.75503 40.7683 2.43223 40.97 2.40383C41.2714 2.36164 41.5339 2.9806 41.6173 3.57615C41.7114 4.24437 43.3053 14.5695 45.0677 18.1352C45.3528 18.7094 45.8235 19.1909 46.4289 19.4036C46.9715 19.5958 47.6089 19.3781 48.1078 18.5506C48.7963 17.4124 49.4345 15.2143 50.0206 13.1952L50.0212 13.1931C50.6322 11.089 51.1865 9.18028 51.6816 8.87074C51.8253 8.78106 51.9641 8.82598 52.0976 9.03984C52.4866 9.66034 52.8596 11.3295 53.2691 13.1619L53.2702 13.1668L53.2711 13.1706C53.8714 15.8546 54.5492 18.885 55.4671 19.4824C55.7301 19.6537 55.9868 19.7699 56.2364 19.8286C57.5939 20.1461 58.7447 18.7542 59.5818 15.1764C59.758 14.4216 59.9186 13.9382 60.07 13.6691C60.2106 13.4203 60.3433 13.355 60.4731 13.4284C60.7826 13.6028 61.0759 14.5638 61.4216 15.6967L61.4246 15.7067L61.4247 15.707C61.9209 17.3355 62.5242 19.3152 63.4343 19.8286C63.5493 19.8936 63.661 19.9392 63.7699 19.9663C64.9836 20.2706 65.853 18.3192 66.5533 15.5271C67.0786 13.4329 67.509 10.8664 67.9182 8.42376C68.2894 6.20796 68.6438 4.09516 69.0361 2.53122C69.2357 1.73529 69.4337 1.36227 69.6321 1.32906C70.2793 1.22012 70.9296 4.7183 71.6373 8.92481C71.7031 9.31494 71.7701 9.7177 71.8371 10.1201L71.879 10.3718C71.9612 10.8647 72.0472 11.3798 72.1309 11.8783C72.7018 15.2688 73.5737 17.4128 74.559 18.4716C75.5468 19.5329 76.6488 19.5042 77.676 18.5485C78.857 17.4475 79.7029 13.5626 80.3818 10.4446L80.3822 10.4429C80.8635 8.23076 81.2608 6.40514 81.6341 6.23427C81.7331 6.18871 81.8305 6.25978 81.9274 6.47124C82.2712 7.2192 82.4893 8.8847 82.737 10.7772L82.7371 10.7782C83.1945 14.2712 83.7532 18.5378 85.3901 19.2405C85.5491 19.3091 85.7019 19.3646 85.8485 19.4081C87.8442 20.0008 88.7449 18.3669 89.3667 16.2719C89.5623 15.6134 89.7306 14.9086 89.8962 14.2141L89.902 14.1898C90.0614 13.5217 90.219 12.8609 90.3977 12.2595C90.5394 11.7827 90.6704 11.4713 90.7944 11.298C90.9214 11.1206 91.0409 11.0881 91.1562 11.1708C91.497 11.4142 91.8037 12.6612 92.1695 14.1485L92.1699 14.1501L92.1705 14.1527Z" fill="#DFA50F"/>
<path d="M91.9988 29.9804C92.5397 27.781 93.21 25.0563 94.3102 24.2694C95.9786 23.0759 98.1214 22.3842 99.8291 21.9944H0C1.64865 22.5254 6.79292 24.2522 8.53543 25.621C10.4932 27.162 11.92 29.3631 12.9783 31.6747C13.1092 32.0409 14.2743 35.3259 14.7904 37.7726C14.8273 37.971 14.8645 38.1644 14.9014 38.3497L14.9048 38.3681L14.908 38.3866V38.387C14.921 38.4647 14.9362 38.5345 14.9515 38.5998H14.9516C15.5745 41.6797 16.093 43.0431 16.3978 43.6325C16.5111 43.9008 16.6524 44.0922 16.8073 44.1248C16.8159 44.1269 16.8268 44.1289 16.8353 44.1289H16.8488C17.5825 44.2122 18.1227 41.0559 18.4516 38.3254C18.4516 38.3254 19.0746 33.5192 19.926 30.8372C20.4004 29.5495 20.9424 28.4386 21.5395 27.6631C22.4226 26.5164 23.4268 26.1036 24.5128 26.9403C27.9737 29.6 29.2108 35.9765 29.2108 35.9765C29.2108 35.9765 29.486 37.0038 29.863 37.0633C30.1608 37.1104 30.5215 36.5544 30.8595 34.4138C31.404 30.9654 33.0198 25.2556 34.8759 25.2317C36.3558 25.2111 37.7752 29.8856 38.7872 34.1193C39.2372 36.0012 39.6062 37.7954 39.8647 39.0524L39.8698 39.0771C40.0078 39.749 40.1142 40.2656 40.1832 40.5544C40.3782 41.3755 40.5976 41.6983 40.7989 41.7266C41.1004 41.7689 41.3627 41.1499 41.4461 40.5544C41.5406 39.8862 43.1342 29.5611 44.8966 25.9952C45.1816 25.421 45.6523 24.9397 46.2578 24.7269C46.8002 24.5347 47.4377 24.7524 47.9368 25.58C48.625 26.7181 49.2634 28.9163 49.8495 30.9354C50.4606 33.0403 51.0151 34.9502 51.5104 35.2598C51.6541 35.3493 51.793 35.3046 51.9269 35.0905C52.3159 34.4696 52.6896 32.7979 53.0995 30.9638C53.6995 28.2792 54.3777 25.2456 55.296 24.648C55.5593 24.4768 55.816 24.3605 56.0657 24.3018C57.4228 23.9843 58.5736 25.3762 59.4106 28.954C59.5868 29.709 59.7474 30.1924 59.8993 30.4614C60.0399 30.7103 60.1721 30.7756 60.3018 30.7024C60.6124 30.5271 60.9067 29.5616 61.2533 28.4246L61.2536 28.4237C61.7496 26.7953 62.353 24.8156 63.2635 24.3018C63.3782 24.2369 63.4899 24.1917 63.5992 24.1643C64.8129 23.8599 65.682 25.8112 66.3821 28.6033C66.9075 30.6976 67.338 33.2641 67.7474 35.7066C68.1187 37.9226 68.4728 40.0352 68.865 41.5993C69.0646 42.3953 69.2629 42.7681 69.4614 42.8015C70.1083 42.9103 70.7584 39.4122 71.466 35.2056C71.5333 34.808 71.6017 34.3973 71.6699 33.9872L71.708 33.7586C71.7901 33.2657 71.876 32.7507 71.9602 32.2526C72.531 28.8616 73.4027 26.7181 74.3879 25.6592C75.3761 24.5976 76.4781 24.6263 77.5049 25.5821C78.6859 26.683 79.532 30.5686 80.211 33.6866L80.2112 33.6875C80.6925 35.8998 81.09 37.7254 81.4634 37.8963C81.5624 37.9418 81.6598 37.8708 81.7562 37.6593C82.1 36.9113 82.318 35.2458 82.5657 33.3533L82.5658 33.3531C83.0233 29.8599 83.5823 25.5926 85.2194 24.8899C85.3779 24.8214 85.5308 24.7659 85.6774 24.7224C87.6734 24.1301 88.5741 25.7635 89.196 27.8587C89.3911 28.5171 89.5595 29.2219 89.7249 29.9164L89.7287 29.9319C89.8889 30.6031 90.0475 31.267 90.227 31.871C90.3681 32.3479 90.4997 32.6591 90.6232 32.8325C90.7501 33.0098 90.8697 33.0424 90.9852 32.9598C91.326 32.7162 91.6329 31.4685 91.9988 29.9804Z" fill="#DFA50F"/>
</svg>
